<?xml version="1.0" standalone="no"?>
<!DOCTYPE svg PUBLIC "-//W3C//DTD SVG 20010904//EN"
 "http://www.w3.org/TR/2001/REC-SVG-20010904/DTD/svg10.dtd">
<svg version="1.0" xmlns="http://www.w3.org/2000/svg"
 width="621.000000pt" height="621.000000pt" viewBox="0 0 621.000000 621.000000"
 preserveAspectRatio="xMidYMid meet">
<metadata>
Created by potrace 1.11, written by Peter Selinger 2001-2013
</metadata>
<g transform="translate(0.000000,621.000000) scale(0.100000,-0.100000)"
fill="#000000" stroke="none">
<path d="M0 5840 l0 -370 910 0 910 0 0 34 c0 23 -51 144 -154 368 l-154 333
-756 3 -756 2 0 -370z"/>
<path d="M3126 6178 c-19 -46 -317 -691 -323 -700 -2 -5 763 -8 1701 -8 l1706
0 0 370 0 370 -1535 0 -1535 0 -14 -32z"/>
<path d="M2036 5258 c-3 -18 -96 -1059 -206 -2313 -110 -1254 -202 -2292 -205
-2306 -4 -24 28 -53 342 -320 190 -162 351 -294 358 -294 7 0 168 132 358 293
335 285 345 295 341 325 -2 18 -94 1056 -204 2307 -110 1251 -203 2290 -206
2308 l-5 32 -284 0 -284 0 -5 -32z"/>
<path d="M2900 4127 c0 -38 246 -2842 256 -2914 l5 -43 265 0 c146 0 308 5
362 11 721 79 1149 522 1221 1263 21 217 10 471 -30 666 -108 531 -444 874
-972 995 -171 39 -268 46 -689 52 l-418 6 0 -36z m882 -550 c287 -75 449 -259
519 -587 19 -88 22 -138 23 -305 1 -282 -27 -424 -117 -600 -50 -98 -171 -224
-262 -272 -121 -64 -314 -103 -510 -103 l-85 0 0 951 0 952 168 -6 c134 -4
186 -10 264 -30z"/>
</g>
</svg>
