<svg xmlns="http://www.w3.org/2000/svg" viewBox="0 0 393 342"><defs><clipPath id="a"><path d="M98.16 672.24h396v99.72h-396v-99.72z"/></clipPath><clipPath id="b"><path d="M98.16 672.24h396v99.72h-396v-99.72z"/></clipPath><clipPath id="c"><path d="M98.16 123.24h396v522.72h-396V123.24z"/></clipPath><clipPath id="d"><path d="M98.16 123.24h396v522.72h-396V123.24z"/></clipPath><clipPath id="e"><path d="M98.16 123.24h396v522.72h-396V123.24z"/></clipPath><clipPath id="f"><path d="M98.16 123.24h396v522.72h-396V123.24z"/></clipPath><clipPath id="g"><path d="M98.16 123.24h396v522.72h-396V123.24z"/></clipPath><clipPath id="h"><path d="M98.16 123.24h396v522.72h-396V123.24z"/></clipPath><clipPath id="i"><path d="M98.16 123.24h396v522.72h-396V123.24z"/></clipPath><clipPath id="j"><path d="M98.16 123.24h396v522.72h-396V123.24z"/></clipPath><clipPath id="k"><path d="M0 0h1002.52v311.098H0V0z"/></clipPath><clipPath id="l"><path d="M0 311.098h1002.48V.06H0v311.038z"/></clipPath><clipPath id="m"><path d="M0 311.098h1002.48V.06H0v311.038z"/></clipPath></defs><g clip-path="url(#k)" transform="matrix(1.101 0 0 -1.101 1.156 342.899)"><path d="M183.517 294.932c134.901 0 155.044-86.506 155.044-138.061 0-89.447-55.059-138.707-155.044-138.707H18.166v276.768h165.351" fill="#fff"/><g clip-path="url(#l)"><path d="M0 311.098V0h182.517c54.11 0 96.658 13.519 126.462 40.183 30.355 27.158 45.748 66.082 45.748 115.689 0 27.253-5.303 66.538-30.565 98.921-29.146 37.361-76.802 56.305-141.645 56.305H0" fill="#fff"/></g><path d="M30.182 280.919V30.184h152.335c91.989 0 142.03 42.85 142.03 125.688 0 85.129-54.242 125.047-142.03 125.047H30.182zm152.335 13.014c134.901 0 155.044-86.506 155.044-138.061 0-89.447-55.059-138.707-155.044-138.707H17.165v276.768h165.352" fill="#231f20"/><path d="M50.62 50.624h48.766v86.812H50.62V50.624zM105.306 181.163c0-16.74-13.565-30.313-30.306-30.313-16.733 0-30.311 13.573-30.311 30.313 0 16.728 13.578 30.307 30.311 30.307 16.741 0 30.306-13.579 30.306-30.307" fill="#231f20"/><path d="M123.933 195.27v-28.292h8.684c6.016 0 11.574 1.74 11.574 14.369 0 12.341-6.185 13.923-11.574 13.923h-8.684zm144.862 14.073h14.047v-42.365h20.817c-5.709 76.87-66.182 93.478-121.13 93.478h-58.584v-51.143h8.672c15.809 0 25.633-10.72 25.633-27.966 0-17.793-9.587-28.415-25.633-28.415h-8.672V50.598h58.584c89.341 0 120.43 41.489 121.528 102.334h-35.262v56.411zm-39.138-31.477h10.162l-4.647 15.947h-.843l-4.672-15.947zm-21.922-24.951l17.012 56.43h19.984l17.006-56.43h-14.623l-3.188 10.916h-18.375l-3.197-10.916h-14.619zm-6.746 14.063v-14.046h-34.751v56.389h33.63V195.28h-19.581v-6.537h18.518v-14.037h-18.518v-7.728h20.702" fill="#d6007f"/></g></svg>