<svg xmlns="http://www.w3.org/2000/svg" viewBox="-1.356 -1.356 180.875 47.901"><path d="M32.606 3.408C30.514 1.023 26.731 0 21.893 0H7.849c-.99 0-1.831.72-1.986 1.696L.015 38.783a1.206 1.206 0 0 0 1.191 1.393h8.67l2.178-13.811-.068.432a2.004 2.004 0 0 1 1.98-1.696h4.12c8.093 0 14.43-3.287 16.282-12.797.055-.282.102-.555.143-.823-.233-.124-.233-.124 0 0 .552-3.515-.004-5.907-1.905-8.074" fill="#003087"/><path d="M122.182 20.944h-4.666c-.446 0-.864.221-1.114.591l-6.437 9.48-2.728-9.11a1.35 1.35 0 0 0-1.29-.96h-4.587a.808.808 0 0 0-.765 1.068l5.137 15.082-4.832 6.82a.808.808 0 0 0 .66 1.274h4.661a1.35 1.35 0 0 0 1.108-.579l15.517-22.397a.808.808 0 0 0-.664-1.269M90.987 29.98c-.45 2.653-2.554 4.434-5.24 4.434-1.347 0-2.425-.434-3.118-1.254-.686-.812-.945-1.971-.727-3.26.417-2.63 2.557-4.467 5.202-4.467 1.319 0 2.389.437 3.095 1.265.711.834.991 1.999.788 3.282m6.47-9.036h-4.643a.809.809 0 0 0-.799.683l-.203 1.297-.324-.47c-1.006-1.459-3.248-1.947-5.485-1.947-5.129 0-9.51 3.887-10.363 9.338-.443 2.72.187 5.319 1.73 7.133 1.415 1.666 3.437 2.36 5.845 2.36 4.135 0 6.428-2.655 6.428-2.655l-.208 1.29a.808.808 0 0 0 .8.933h4.18c.663 0 1.227-.48 1.33-1.136l2.51-15.892a.809.809 0 0 0-.798-.934m-27.86.112c-.53 3.48-3.187 3.48-5.758 3.48h-1.463l1.026-6.498a.806.806 0 0 1 .798-.681h.671c1.75 0 3.403 0 4.255.996.51.596.664 1.481.471 2.703m-1.118-9.08h-9.695c-.664 0-1.228.482-1.332 1.137l-3.92 24.86a.808.808 0 0 0 .798.934h4.63c.662 0 1.226-.483 1.33-1.136l1.059-6.708a1.346 1.346 0 0 1 1.33-1.137h3.067c6.386 0 10.073-3.09 11.035-9.217.434-2.677.018-4.782-1.236-6.256-1.379-1.62-3.823-2.477-7.066-2.477" fill="#002f86"/><path d="M172.078 12.659L168.1 37.974a.808.808 0 0 0 .798.933h4.002c.663 0 1.228-.482 1.33-1.137l3.924-24.86a.808.808 0 0 0-.799-.934h-4.477a.807.807 0 0 0-.799.683M160.136 29.98c-.448 2.653-2.553 4.434-5.24 4.434-1.346 0-2.425-.434-3.117-1.254-.688-.812-.945-1.971-.728-3.26.418-2.63 2.558-4.467 5.203-4.467 1.319 0 2.389.437 3.095 1.265.711.834.991 1.999.787 3.282m6.47-9.036h-4.642a.809.809 0 0 0-.799.683l-.204 1.297-.325-.47c-1.005-1.459-3.246-1.947-5.483-1.947-5.13 0-9.51 3.887-10.363 9.338-.444 2.72.186 5.319 1.729 7.133 1.416 1.666 3.437 2.36 5.846 2.36 4.135 0 6.428-2.655 6.428-2.655l-.208 1.29a.808.808 0 0 0 .799.933h4.18c.664 0 1.227-.48 1.331-1.136l2.51-15.892a.809.809 0 0 0-.799-.934m-27.859.112c-.53 3.48-3.187 3.48-5.759 3.48h-1.462l1.026-6.498a.806.806 0 0 1 .798-.681h.67c1.75 0 3.403 0 4.256.996.51.596.664 1.481.471 2.703m-1.119-9.08h-9.695c-.663 0-1.227.482-1.33 1.137l-3.92 24.86a.808.808 0 0 0 .797.934h4.975a.943.943 0 0 0 .93-.795l1.113-7.049a1.346 1.346 0 0 1 1.33-1.137h3.068c6.386 0 10.072-3.09 11.035-9.217.434-2.677.017-4.782-1.236-6.256-1.38-1.62-3.823-2.477-7.067-2.477" fill="#009cde"/><path d="M32.606 3.408C30.514 1.023 26.731 0 21.893 0H7.849c-.99 0-1.831.72-1.986 1.696L.015 38.783a1.206 1.206 0 0 0 1.191 1.393h8.67l2.178-13.811-.068.432a2.004 2.004 0 0 1 1.98-1.696h4.12c8.093 0 14.43-3.287 16.282-12.797.055-.282.102-.555.143-.823-.233-.124-.233-.124 0 0 .552-3.515-.004-5.907-1.905-8.074" fill="#003087"/><path d="M14.394 11.528a1.76 1.76 0 0 1 1.736-1.484h11.01c1.304 0 2.52.085 3.632.264a15.219 15.219 0 0 1 1.8.401 9.946 9.946 0 0 1 1.939.773c.552-3.517-.003-5.908-1.904-8.074C30.513 1.023 26.732 0 21.893 0H7.848c-.989 0-1.83.72-1.985 1.697L.015 38.782a1.205 1.205 0 0 0 1.19 1.393h8.672l2.177-13.81 2.34-14.837z" fill="#002f86"/><path d="M34.512 11.481a22.98 22.98 0 0 1-.144.823C32.517 21.812 26.179 25.1 18.085 25.1h-4.12c-.99 0-1.825.72-1.978 1.697l-2.11 13.377-.6 3.795c-.1.64.395 1.22 1.042 1.22h7.309c.865 0 1.601-.63 1.736-1.484l.071-.372 1.378-8.73.089-.483a1.758 1.758 0 0 1 1.736-1.484h1.094c7.08 0 12.624-2.876 14.244-11.195.676-3.476.326-6.378-1.463-8.417-.542-.618-1.216-1.128-2.001-1.544" fill="#009cde"/><path d="M32.573 10.709a13.504 13.504 0 0 0-.873-.224c-.3-.066-.61-.125-.928-.176-1.112-.18-2.327-.265-3.632-.265H16.13a1.754 1.754 0 0 0-1.736 1.485l-2.34 14.836-.067.432a2.002 2.002 0 0 1 1.978-1.696h4.12c8.095 0 14.432-3.287 16.283-12.797.055-.282.102-.554.144-.823a9.997 9.997 0 0 0-1.522-.642 12.386 12.386 0 0 0-.417-.13" fill="#012069"/></svg>