<?xml version="1.0" encoding="UTF-8" standalone="no"?>
<!-- Created with Inkscape (http://www.inkscape.org/) -->

<svg
   xmlns:dc="http://purl.org/dc/elements/1.1/"
   xmlns:cc="http://creativecommons.org/ns#"
   xmlns:rdf="http://www.w3.org/1999/02/22-rdf-syntax-ns#"
   xmlns:svg="http://www.w3.org/2000/svg"
   xmlns="http://www.w3.org/2000/svg"
   xmlns:sodipodi="http://sodipodi.sourceforge.net/DTD/sodipodi-0.dtd"
   xmlns:inkscape="http://www.inkscape.org/namespaces/inkscape"
   id="svg2"
   version="1.1"
   inkscape:version="0.48.3.1 r9886"
   width="744.09497"
   height="239"
   xml:space="preserve"
   sodipodi:docname="Sofortueberweisung_Factsheet-ENG_Web.pdf"><metadata
     id="metadata8"><rdf:RDF><cc:Work
         rdf:about=""><dc:format>image/svg+xml</dc:format><dc:type
           rdf:resource="http://purl.org/dc/dcmitype/StillImage" /><dc:title></dc:title></cc:Work></rdf:RDF></metadata><defs
     id="defs6"><clipPath
       clipPathUnits="userSpaceOnUse"
       id="clipPath16"><path
         d="m 0,0 595.276,0 0,841.89 L 0,841.89 0,0 z"
         id="path18"
         inkscape:connector-curvature="0" /></clipPath><clipPath
       clipPathUnits="userSpaceOnUse"
       id="clipPath26"><path
         d="m 0,841.89 595.276,0 L 595.276,0 0,0 0,841.89 z"
         id="path28"
         inkscape:connector-curvature="0" /></clipPath><clipPath
       clipPathUnits="userSpaceOnUse"
       id="clipPath48"><path
         d="m 0,0 595.276,0 0,841.89 L 0,841.89 0,0 z"
         id="path50"
         inkscape:connector-curvature="0" /></clipPath><clipPath
       clipPathUnits="userSpaceOnUse"
       id="clipPath58"><path
         d="m 0,841.89 595.276,0 L 595.276,0 0,0 0,841.89 z"
         id="path60"
         inkscape:connector-curvature="0" /></clipPath><clipPath
       clipPathUnits="userSpaceOnUse"
       id="clipPath72"><path
         d="m 496.063,14.172 85.039,0 0,17.008 -85.039,0 0,-17.008 z"
         id="path74"
         inkscape:connector-curvature="0" /></clipPath><clipPath
       clipPathUnits="userSpaceOnUse"
       id="clipPath358"><path
         d="m 42.52,518.878 141.732,0 0,82.832 -141.732,0 0,-82.832 z"
         id="path360"
         inkscape:connector-curvature="0" /></clipPath><clipPath
       clipPathUnits="userSpaceOnUse"
       id="clipPath386"><path
         d="m 45.922,539.379 134.929,0 0,41.828 -134.929,0 0,-41.828 z"
         id="path388"
         inkscape:connector-curvature="0" /></clipPath><clipPath
       clipPathUnits="userSpaceOnUse"
       id="clipPath402"><path
         d="m 42.52,518.878 141.732,0 0,82.832 -141.732,0 0,-82.832 z"
         id="path404"
         inkscape:connector-curvature="0" /></clipPath></defs><sodipodi:namedview
     pagecolor="#ffffff"
     bordercolor="#666666"
     borderopacity="1"
     objecttolerance="10"
     gridtolerance="10"
     guidetolerance="10"
     inkscape:pageopacity="0"
     inkscape:pageshadow="2"
     inkscape:window-width="2560"
     inkscape:window-height="1513"
     id="namedview4"
     showgrid="false"
     inkscape:zoom="0.89702926"
     inkscape:cx="419.62785"
     inkscape:cy="471.18742"
     inkscape:window-x="0"
     inkscape:window-y="27"
     inkscape:window-maximized="1"
     inkscape:current-layer="g10" /><g
     id="g10"
     inkscape:groupmode="layer"
     inkscape:label="Sofortueberweisung_Factsheet-ENG_Web"
     transform="matrix(1.25,0,0,-1.25,0,238.99995)"><g
       id="g3412"
       transform="matrix(4.3312656,0,0,4.3312656,-194.00002,-2330.1306)"><g
         id="g354"><g
           clip-path="url(#clipPath358)"
           id="g356"><g
             transform="translate(157.229,580.8557)"
             id="g362"><path
               id="path364"
               style="fill:#f47216;fill-opacity:1;fill-rule:nonzero;stroke:none"
               d="m 0,0 c 0.464,-0.368 0.863,-0.786 1.197,-1.265 0.853,-1.229 1.179,-2.69 0.985,-4.364 l 4.365,0 -6.58,-18.084 6.575,0 6.583,18.084 8.447,0 L 23.621,0 0,0 z"
               inkscape:connector-curvature="0" /></g><g
             transform="translate(150.5203,573.2929)"
             id="g366"><path
               id="path368"
               style="fill:#f47216;fill-opacity:1;fill-rule:nonzero;stroke:none"
               d="m 0,0 c -0.704,-1.896 -1.968,-3.067 -4.372,-3.067 l -0.01,0 -1.244,0.002 2.127,5.733 1.21,0 C -0.077,2.667 0.75,2.02 0,0 M 6.38,5.237 C 5.298,6.794 3.098,7.559 -0.349,7.563 l -7.981,0 -8.632,-23.708 7.332,0 3.138,8.345 c 0.154,-0.344 2.004,-8.345 2.004,-8.345 l 7.709,0 c 0,0 -1.403,5.879 -2.434,8.255 -0.264,0.61 -0.541,1.294 -0.91,1.867 2.177,0.808 5.331,2.546 6.638,6.065 0.803,2.164 0.756,3.912 -0.135,5.195"
               inkscape:connector-curvature="0" /></g><g
             transform="translate(83.2222,580.8691)"
             id="g370"><path
               id="path372"
               style="fill:#f47216;fill-opacity:1;fill-rule:nonzero;stroke:none"
               d="m 0,0 -13.594,0 c -2.143,0 -4.225,0 -6.09,-0.946 -1.865,-0.948 -3.512,-2.842 -4.78,-6.631 -0.274,-0.815 -0.42,-1.516 -0.439,-2.125 -0.019,-0.611 0.087,-1.131 0.318,-1.582 0.286,-0.55 0.748,-1.069 1.326,-1.506 0.579,-0.437 1.272,-0.792 2.018,-1.02 0.029,-0.007 0.421,-0.12 0.896,-0.255 0.474,-0.137 1.028,-0.299 1.378,-0.405 0.205,-0.063 0.432,-0.145 0.636,-0.268 0.205,-0.121 0.388,-0.284 0.504,-0.51 0.076,-0.151 0.117,-0.314 0.121,-0.49 0.005,-0.177 -0.025,-0.367 -0.094,-0.568 -0.173,-0.515 -0.438,-0.846 -0.94,-1.049 -0.501,-0.202 -1.24,-0.268 -2.361,-0.276 l -13.988,0 -2.212,-6.076 14.973,0 c 1.41,0 3.986,0 6.461,1.053 2.476,1.051 4.85,3.154 5.855,7.36 0.378,1.58 0.261,2.868 -0.358,3.879 -0.622,1.012 -1.745,1.745 -3.38,2.215 0,0 -0.367,0.106 -0.798,0.23 -0.429,0.123 -0.924,0.264 -1.178,0.338 -0.419,0.12 -0.741,0.362 -0.931,0.67 -0.189,0.308 -0.246,0.682 -0.139,1.064 0.113,0.397 0.384,0.714 0.777,0.933 0.394,0.217 0.911,0.337 1.515,0.337 l 8.703,0 c 0.062,0.089 0.118,0.185 0.179,0.274 C -4.032,-3.105 -2.108,-1.285 0,0"
               inkscape:connector-curvature="0" /></g><g
             transform="translate(89.6072,569.1254)"
             id="g374"><path
               id="path376"
               style="fill:#f47216;fill-opacity:1;fill-rule:nonzero;stroke:none"
               d="m 0,0 c -2.032,-5.561 -3.507,-6.961 -5.726,-6.961 l -0.004,0 c -2.163,0.003 -2.92,1.371 -0.897,6.905 1.511,4.132 3.467,6.775 5.835,6.775 l 0.001,0 C 1.462,6.716 1.977,5.411 0,0 m 6.972,9.523 c -1.185,1.695 -3.212,2.557 -6.034,2.559 -1.845,0 -3.635,-0.424 -5.315,-1.216 -2.402,-1.136 -4.578,-3.033 -6.356,-5.548 -1.154,-1.634 -2.143,-3.527 -2.918,-5.645 -1.458,-3.996 -1.443,-7.239 0.05,-9.376 0.846,-1.208 2.604,-2.65 6.179,-2.654 l 0.014,0 c 6.513,0 11.375,4.269 14.454,12.688 0.813,2.229 1.886,6.386 -0.074,9.192"
               inkscape:connector-curvature="0" /></g><g
             transform="translate(122.6048,580.8691)"
             id="g378"><path
               id="path380"
               style="fill:#f47216;fill-opacity:1;fill-rule:nonzero;stroke:none"
               d="m 0,0 -13.854,0 c -3.873,0 -6.757,-1.959 -8.118,-5.628 l -6.58,-18.079 7.208,0 3.382,9.294 6.37,-0.004 1.812,4.977 -6.35,0.004 1.023,2.882 c 0.213,0.516 0.722,0.927 1.467,0.927 0.415,0 5.092,-0.001 7.512,-0.002 0.062,0.089 0.119,0.186 0.18,0.275 C -4.359,-3.105 -2.108,-1.285 0,0"
               inkscape:connector-curvature="0" /></g></g></g><g
         id="g382"><g
           clip-path="url(#clipPath386)"
           id="g384"><g
             transform="translate(128.9061,569.1254)"
             id="g390"><path
               id="path392"
               style="fill:#f47216;fill-opacity:1;fill-rule:nonzero;stroke:none"
               d="m 0,0 c -2.031,-5.561 -3.506,-6.961 -5.725,-6.961 l -0.004,0 c -2.164,0.003 -2.919,1.371 -0.897,6.905 1.509,4.132 3.468,6.775 5.834,6.775 l 0.004,0 C 1.462,6.716 1.978,5.411 0,0 m 6.972,9.523 c -1.185,1.695 -3.212,2.557 -6.034,2.559 -1.844,0 -3.635,-0.424 -5.314,-1.216 -2.402,-1.136 -4.578,-3.033 -6.356,-5.548 -1.156,-1.634 -2.143,-3.527 -2.917,-5.645 -1.461,-3.996 -1.443,-7.239 0.051,-9.376 0.844,-1.208 2.601,-2.65 6.179,-2.654 l 0.011,0 c 6.515,0 11.378,4.269 14.454,12.688 0.816,2.229 1.887,6.386 -0.074,9.192"
               inkscape:connector-curvature="0" /></g><g
             transform="translate(54.2424,548.0677)"
             id="g394"><path
               id="path396"
               style="fill:#2f2e34;fill-opacity:1;fill-rule:nonzero;stroke:none"
               d="M 0,0 C 0.086,0.237 0.127,0.45 0.123,0.637 0.118,0.826 0.066,0.982 -0.034,1.106 -0.135,1.23 -0.283,1.325 -0.481,1.392 -0.678,1.459 -0.962,1.493 -1.331,1.493 l -1.21,0 -1.112,-3.058 1.337,0 c 0.344,0 0.636,0.042 0.872,0.124 0.237,0.082 0.449,0.193 0.636,0.336 0.189,0.143 0.351,0.31 0.488,0.5 C -0.185,-0.413 -0.077,-0.212 0,0 m -1.225,-5.04 c 0.099,0.274 0.143,0.518 0.13,0.733 -0.012,0.215 -0.08,0.396 -0.203,0.54 -0.123,0.146 -0.307,0.259 -0.55,0.337 -0.246,0.079 -0.585,0.118 -1.023,0.118 l -1.418,0 -1.219,-3.347 1.728,0 c 0.334,0 0.627,0.034 0.879,0.104 0.253,0.07 0.488,0.174 0.705,0.31 0.217,0.136 0.408,0.306 0.577,0.509 0.168,0.204 0.299,0.435 0.394,0.696 m 2.514,0.082 C 1.136,-5.376 0.94,-5.756 0.701,-6.096 0.463,-6.434 0.194,-6.735 -0.104,-6.995 c -0.298,-0.262 -0.623,-0.486 -0.972,-0.674 -0.352,-0.188 -0.718,-0.343 -1.103,-0.464 -0.382,-0.122 -0.778,-0.21 -1.183,-0.268 -0.407,-0.058 -0.846,-0.087 -1.32,-0.087 l -3.129,0 c -0.2,0 -0.347,0.059 -0.441,0.178 -0.093,0.119 -0.092,0.31 0.005,0.577 L -4.511,2.53 c 0.097,0.267 0.235,0.459 0.415,0.578 0.18,0.118 0.37,0.177 0.569,0.177 l 2.957,0 c 0.722,0 1.311,-0.06 1.768,-0.182 C 1.653,2.981 2.009,2.798 2.262,2.552 2.515,2.308 2.664,1.996 2.709,1.62 2.755,1.244 2.684,0.801 2.498,0.292 2.395,0.007 2.26,-0.262 2.096,-0.513 1.932,-0.766 1.742,-0.994 1.528,-1.2 1.313,-1.407 1.076,-1.589 0.816,-1.746 0.555,-1.904 0.277,-2.031 -0.02,-2.128 0.292,-2.188 0.561,-2.295 0.788,-2.446 1.014,-2.598 1.19,-2.794 1.311,-3.033 1.433,-3.273 1.496,-3.554 1.5,-3.875 1.505,-4.197 1.434,-4.558 1.289,-4.958"
               inkscape:connector-curvature="0" /></g></g></g><g
         id="g398"><g
           clip-path="url(#clipPath402)"
           id="g400"><g
             transform="translate(64.6967,549.1052)"
             id="g406"><path
               id="path408"
               style="fill:#2f2e34;fill-opacity:1;fill-rule:nonzero;stroke:none"
               d="m 0,0 -0.009,0 -3.487,-5.003 3.339,0 L 0,0 z M 2.261,-8.634 C 2.255,-8.852 2.238,-9.025 2.209,-9.152 2.181,-9.279 2.122,-9.375 2.032,-9.439 1.942,-9.503 1.809,-9.542 1.634,-9.558 1.458,-9.572 1.222,-9.58 0.925,-9.58 c -0.309,0 -0.549,0.005 -0.718,0.014 -0.17,0.008 -0.294,0.027 -0.376,0.054 -0.081,0.027 -0.131,0.066 -0.15,0.114 -0.018,0.048 -0.026,0.112 -0.021,0.192 l 0.07,2.364 -4.422,0 -1.585,-2.301 c -0.055,-0.085 -0.112,-0.156 -0.173,-0.214 -0.06,-0.058 -0.14,-0.104 -0.24,-0.136 -0.1,-0.033 -0.233,-0.056 -0.399,-0.069 -0.164,-0.012 -0.378,-0.018 -0.638,-0.018 -0.279,0 -0.494,0.009 -0.645,0.027 -0.151,0.018 -0.244,0.063 -0.279,0.133 -0.036,0.069 -0.021,0.167 0.043,0.294 0.065,0.129 0.172,0.299 0.323,0.511 l 7.43,10.444 c 0.075,0.103 0.148,0.186 0.219,0.249 0.072,0.065 0.167,0.113 0.286,0.147 0.118,0.033 0.272,0.054 0.464,0.063 0.191,0.01 0.441,0.015 0.751,0.015 0.358,0 0.641,-0.005 0.85,-0.015 C 1.924,2.279 2.082,2.258 2.188,2.225 2.294,2.191 2.36,2.142 2.388,2.075 2.415,2.008 2.426,1.917 2.42,1.802 L 2.261,-8.634 z"
               inkscape:connector-curvature="0" /></g><g
             transform="translate(79.149,540.4164)"
             id="g410"><path
               id="path412"
               style="fill:#2f2e34;fill-opacity:1;fill-rule:nonzero;stroke:none"
               d="m 0,0 c -0.051,-0.138 -0.12,-0.264 -0.209,-0.373 -0.087,-0.109 -0.186,-0.199 -0.294,-0.273 -0.108,-0.072 -0.225,-0.126 -0.349,-0.158 -0.125,-0.034 -0.244,-0.05 -0.36,-0.05 l -1.019,0 c -0.211,0 -0.388,0.021 -0.527,0.063 -0.139,0.043 -0.253,0.12 -0.343,0.232 -0.089,0.112 -0.16,0.264 -0.212,0.455 -0.052,0.19 -0.098,0.438 -0.139,0.741 L -4.379,6.141 C -4.43,6.47 -4.474,6.823 -4.511,7.201 -4.55,7.58 -4.573,7.949 -4.582,8.307 l -0.018,0 C -4.736,7.87 -4.875,7.436 -5.021,7.001 -5.167,6.567 -5.323,6.12 -5.492,5.659 L -7.734,-0.5 c -0.021,-0.061 -0.058,-0.115 -0.109,-0.164 -0.051,-0.049 -0.124,-0.089 -0.217,-0.122 -0.095,-0.034 -0.214,-0.06 -0.361,-0.078 -0.146,-0.018 -0.328,-0.028 -0.547,-0.028 -0.212,0 -0.384,0.01 -0.518,0.028 -0.132,0.018 -0.232,0.044 -0.298,0.078 -0.067,0.033 -0.107,0.073 -0.12,0.122 -0.012,0.049 -0.007,0.103 0.015,0.164 l 3.851,10.581 c 0.104,0.285 0.265,0.498 0.483,0.642 0.219,0.142 0.45,0.213 0.693,0.213 l 1.282,0 c 0.231,0 0.417,-0.02 0.561,-0.059 0.143,-0.039 0.261,-0.105 0.351,-0.196 0.092,-0.09 0.162,-0.217 0.213,-0.377 0.051,-0.161 0.092,-0.359 0.12,-0.595 L -1.608,5.405 C -1.57,5.144 -1.531,4.887 -1.492,4.636 -1.453,4.384 -1.419,4.132 -1.389,3.88 -1.359,3.63 -1.331,3.382 -1.305,3.139 -1.277,2.897 -1.254,2.654 -1.233,2.412 l 0.009,0 c 0.136,0.424 0.284,0.866 0.443,1.328 0.159,0.461 0.314,0.901 0.466,1.318 l 2.011,5.523 c 0.021,0.062 0.059,0.116 0.114,0.165 0.053,0.047 0.129,0.09 0.228,0.126 0.098,0.037 0.22,0.064 0.365,0.078 0.145,0.016 0.327,0.023 0.545,0.023 0.206,0 0.377,-0.007 0.51,-0.023 0.135,-0.014 0.232,-0.041 0.295,-0.078 0.062,-0.036 0.1,-0.079 0.113,-0.126 0.013,-0.049 0.007,-0.103 -0.015,-0.165 L 0,0 z"
               inkscape:connector-curvature="0" /></g><g
             transform="translate(90.9936,539.9343)"
             id="g414"><path
               id="path416"
               style="fill:#2f2e34;fill-opacity:1;fill-rule:nonzero;stroke:none"
               d="m 0,0 c -0.024,-0.066 -0.063,-0.126 -0.115,-0.177 -0.052,-0.052 -0.131,-0.094 -0.237,-0.127 -0.106,-0.034 -0.245,-0.06 -0.415,-0.078 -0.17,-0.018 -0.379,-0.028 -0.628,-0.028 -0.395,0 -0.673,0.016 -0.834,0.046 -0.162,0.031 -0.27,0.076 -0.323,0.137 -0.055,0.061 -0.087,0.133 -0.099,0.219 L -4.174,5.578 -6.208,-0.008 C -6.232,-0.076 -6.272,-0.132 -6.326,-0.182 -6.38,-0.231 -6.458,-0.271 -6.562,-0.304 -6.664,-0.338 -6.795,-0.364 -6.953,-0.382 -7.112,-0.4 -7.309,-0.41 -7.546,-0.41 c -0.23,0 -0.42,0.01 -0.568,0.028 -0.147,0.018 -0.261,0.044 -0.34,0.078 -0.079,0.033 -0.129,0.073 -0.151,0.122 -0.022,0.05 -0.02,0.106 0.004,0.174 l 4.037,11.089 c 0.024,0.068 0.065,0.125 0.121,0.173 0.058,0.049 0.137,0.088 0.24,0.119 0.102,0.03 0.233,0.054 0.395,0.073 0.161,0.018 0.356,0.028 0.587,0.028 0.236,0 0.428,-0.01 0.573,-0.028 0.144,-0.019 0.258,-0.043 0.337,-0.073 0.08,-0.031 0.129,-0.07 0.147,-0.119 0.019,-0.048 0.017,-0.105 -0.007,-0.173 l -1.825,-5.013 5.269,5.005 c 0.072,0.079 0.147,0.144 0.227,0.195 0.078,0.052 0.172,0.093 0.281,0.123 0.108,0.03 0.239,0.053 0.396,0.064 0.155,0.013 0.352,0.019 0.589,0.019 0.242,0 0.439,-0.01 0.59,-0.028 0.152,-0.019 0.268,-0.045 0.35,-0.078 C 3.788,11.335 3.838,11.294 3.857,11.246 3.876,11.197 3.873,11.142 3.851,11.081 3.813,10.978 3.748,10.872 3.654,10.763 3.559,10.655 3.393,10.482 3.156,10.246 L -1.614,6.014 -0.03,0.692 C 0.013,0.443 0.033,0.277 0.03,0.196 0.028,0.113 0.018,0.048 0,0"
               inkscape:connector-curvature="0" /></g><g
             transform="translate(95.7879,539.9074)"
             id="g418"><path
               id="path420"
               style="fill:#2f2e34;fill-opacity:1;fill-rule:nonzero;stroke:none"
               d="m 0,0 c -0.022,-0.06 -0.061,-0.116 -0.119,-0.164 -0.057,-0.049 -0.136,-0.088 -0.238,-0.118 -0.103,-0.031 -0.232,-0.055 -0.391,-0.073 -0.158,-0.018 -0.356,-0.028 -0.592,-0.028 -0.231,0 -0.42,0.01 -0.568,0.028 -0.148,0.018 -0.263,0.042 -0.342,0.073 -0.08,0.03 -0.131,0.069 -0.153,0.118 -0.022,0.048 -0.021,0.104 10e-4,0.164 l 4.047,11.118 c 0.022,0.061 0.061,0.115 0.118,0.163 0.058,0.049 0.138,0.088 0.244,0.119 0.106,0.03 0.236,0.054 0.395,0.073 0.158,0.018 0.352,0.028 0.583,0.028 0.236,0 0.427,-0.01 0.573,-0.028 0.144,-0.019 0.257,-0.043 0.336,-0.073 0.08,-0.031 0.132,-0.07 0.152,-0.119 0.023,-0.048 0.023,-0.102 0,-0.163 L 0,0 z"
               inkscape:connector-curvature="0" /></g><g
             transform="translate(109.1016,540.4164)"
             id="g422"><path
               id="path424"
               style="fill:#2f2e34;fill-opacity:1;fill-rule:nonzero;stroke:none"
               d="m 0,0 c -0.051,-0.138 -0.12,-0.264 -0.209,-0.373 -0.089,-0.109 -0.186,-0.199 -0.294,-0.273 -0.108,-0.072 -0.224,-0.126 -0.35,-0.158 -0.124,-0.034 -0.244,-0.05 -0.358,-0.05 l -1.02,0 c -0.212,0 -0.388,0.021 -0.527,0.063 -0.139,0.043 -0.254,0.12 -0.343,0.232 -0.089,0.112 -0.161,0.264 -0.212,0.455 -0.052,0.19 -0.098,0.438 -0.14,0.741 L -4.379,6.141 C -4.429,6.47 -4.474,6.823 -4.511,7.201 -4.55,7.58 -4.573,7.949 -4.582,8.307 l -0.018,0 C -4.735,7.87 -4.875,7.436 -5.021,7.001 -5.167,6.567 -5.325,6.12 -5.492,5.659 L -7.734,-0.5 c -0.021,-0.061 -0.058,-0.115 -0.109,-0.164 -0.052,-0.049 -0.124,-0.089 -0.218,-0.122 -0.093,-0.034 -0.214,-0.06 -0.359,-0.078 -0.148,-0.018 -0.329,-0.028 -0.548,-0.028 -0.212,0 -0.384,0.01 -0.518,0.028 -0.133,0.018 -0.232,0.044 -0.299,0.078 -0.067,0.033 -0.105,0.073 -0.119,0.122 -0.012,0.049 -0.007,0.103 0.015,0.164 l 3.851,10.581 c 0.103,0.285 0.265,0.498 0.484,0.642 0.218,0.142 0.448,0.213 0.691,0.213 l 1.283,0 c 0.23,0 0.418,-0.02 0.561,-0.059 0.143,-0.039 0.26,-0.105 0.351,-0.196 0.092,-0.09 0.163,-0.217 0.213,-0.377 0.051,-0.161 0.091,-0.359 0.12,-0.595 L -1.608,5.405 C -1.57,5.144 -1.531,4.887 -1.492,4.636 -1.454,4.384 -1.419,4.132 -1.389,3.88 -1.36,3.63 -1.331,3.382 -1.305,3.139 -1.277,2.897 -1.254,2.654 -1.232,2.412 l 0.008,0 c 0.136,0.424 0.283,0.866 0.443,1.328 0.158,0.461 0.314,0.901 0.466,1.318 l 2.011,5.523 c 0.021,0.062 0.059,0.116 0.114,0.165 0.053,0.047 0.129,0.09 0.228,0.126 0.098,0.037 0.22,0.064 0.365,0.078 0.145,0.016 0.326,0.023 0.545,0.023 0.205,0 0.375,-0.007 0.51,-0.023 0.134,-0.014 0.232,-0.041 0.295,-0.078 0.062,-0.036 0.1,-0.079 0.113,-0.126 0.013,-0.049 0.008,-0.103 -0.015,-0.165 L 0,0 z"
               inkscape:connector-curvature="0" /></g><g
             transform="translate(125.2861,549.524)"
             id="g426"><path
               id="path428"
               style="fill:#2f2e34;fill-opacity:1;fill-rule:nonzero;stroke:none"
               d="M 0,0 C -0.064,-0.176 -0.126,-0.328 -0.188,-0.454 -0.25,-0.582 -0.307,-0.684 -0.363,-0.76 -0.417,-0.836 -0.469,-0.888 -0.52,-0.919 -0.572,-0.95 -0.624,-0.965 -0.678,-0.965 c -0.079,0 -0.186,0.056 -0.323,0.165 -0.136,0.108 -0.327,0.226 -0.57,0.354 -0.246,0.128 -0.551,0.246 -0.913,0.356 -0.364,0.109 -0.812,0.163 -1.346,0.163 -0.571,0 -1.123,-0.099 -1.654,-0.296 -0.533,-0.197 -1.029,-0.476 -1.488,-0.837 -0.459,-0.361 -0.869,-0.795 -1.229,-1.301 -0.359,-0.507 -0.651,-1.066 -0.875,-1.678 -0.245,-0.674 -0.372,-1.267 -0.379,-1.779 -0.007,-0.514 0.087,-0.942 0.283,-1.287 0.195,-0.347 0.487,-0.607 0.874,-0.783 0.388,-0.176 0.855,-0.264 1.401,-0.264 0.267,0 0.543,0.031 0.824,0.09 0.283,0.062 0.559,0.152 0.827,0.274 l 0.994,2.729 -2.228,0 c -0.11,0 -0.171,0.068 -0.181,0.206 -0.011,0.135 0.044,0.367 0.163,0.695 0.062,0.17 0.121,0.312 0.178,0.428 0.056,0.115 0.114,0.207 0.17,0.277 0.056,0.07 0.11,0.121 0.164,0.155 0.055,0.033 0.109,0.05 0.164,0.05 l 3.976,0 c 0.097,0 0.178,-0.017 0.241,-0.05 0.064,-0.034 0.112,-0.083 0.145,-0.151 0.033,-0.066 0.049,-0.147 0.045,-0.24 -0.004,-0.095 -0.028,-0.202 -0.073,-0.323 l -1.705,-4.686 c -0.065,-0.181 -0.156,-0.341 -0.269,-0.478 -0.113,-0.137 -0.282,-0.244 -0.509,-0.323 -0.226,-0.079 -0.499,-0.16 -0.821,-0.245 -0.324,-0.086 -0.65,-0.158 -0.985,-0.218 -0.334,-0.061 -0.666,-0.107 -0.996,-0.137 -0.329,-0.03 -0.654,-0.046 -0.977,-0.046 -0.939,0 -1.732,0.136 -2.376,0.405 -0.645,0.27 -1.132,0.661 -1.461,1.173 -0.329,0.513 -0.496,1.138 -0.5,1.875 -0.006,0.738 0.163,1.573 0.502,2.507 0.35,0.965 0.813,1.829 1.382,2.598 0.57,0.767 1.22,1.419 1.95,1.956 0.728,0.536 1.522,0.947 2.381,1.232 0.859,0.285 1.753,0.428 2.68,0.428 0.51,0 0.961,-0.035 1.355,-0.106 C -1.445,1.854 -1.111,1.77 -0.835,1.669 -0.558,1.57 -0.338,1.462 -0.173,1.347 -0.01,1.23 0.098,1.132 0.149,1.046 0.2,0.961 0.216,0.842 0.197,0.687 0.176,0.532 0.11,0.303 0,0"
               inkscape:connector-curvature="0" /></g></g></g></g></g></svg>